<?xml version="1.0"?>
<svg xmlns="http://www.w3.org/2000/svg" viewBox="0 0 24 24" fill="currentColor" >
    <path d="M12,2C6.486,2,2,6.262,2,11.5c0,2.545,1.088,4.988,3,6.772v4.346l4.08-2.039C10.039,20.858,11.02,21,12,21c5.514,0,10-4.262,10-9.5S17.514,2,12,2z M12,19c-0.789,0-1.584-0.115-2.361-0.341l-0.753-0.219L8.185,18.79L7,19.382v-1.11v-0.869L6.364,16.81C4.862,15.408,4,13.472,4,11.5C4,7.365,7.589,4,12,4s8,3.365,8,7.5S16.411,19,12,19z"/>
    <polygon points="13,14 10.5,12 6,14 11,9 13.5,11 18,9 "/>
</svg>